<svg xmlns="http://www.w3.org/2000/svg" width="164" height="157" viewBox="1874.152 1497.607 98.032 93.848"><defs><clipPath id="clip1"><path d="M1912.5 1533.66c-2.359 3.539-6.848 11.895-5.668 17.008s9.848 19.844 14.176 19.844c4.324 0 15.039-14.731 17.008-19.844 1.964-5.113-.871-13.469-2.836-17.008s-8.192-8.504-11.34-8.504c-3.145 0-8.977 4.965-11.34 8.504z"/></clipPath></defs><g id="page1"><path d="M1889.824 1545c5.508 12.664 17.969 25.512 31.184 25.512s29.691-13.399 36.847-25.512c7.16-12.113 6.61-29.691 0-36.852-6.605-7.156-25.203-4.957-34.015 0-8.809 4.957-10.789 13.399-11.34 25.512-.547 12.113 1.898 25.84 8.508 36.852 6.605 11.011 16.148 20.394 25.512 19.843 9.359-.55 20.472-13.867 22.675-22.679 2.203-8.809-4.73-16.071-11.34-22.676-6.605-6.609-13.867-9.137-22.675-11.34-8.809-2.203-13.867-2.203-22.68 0-8.809 2.203-15.516 3.629-22.676 11.34-7.156 7.707-15.273 20.086-14.172 28.348 1.102 8.257 11.032 14.722 19.84 14.172 8.813-.551 17.805-6.547 25.516-17.008 7.707-10.461 13.621-24.739 14.172-36.852.55-12.113-3.078-20.004-11.34-25.512-8.258-5.507-24.574-9.992-31.18-2.836-6.609 7.161-8.344 27.024-2.836 39.688z" fill="#bfbfbf" clip-path="url(#clip1)" fill-rule="evenodd"/><path d="M1889.824 1545c5.508 12.664 17.969 25.512 31.184 25.512s29.691-13.399 36.847-25.512c7.16-12.113 6.61-29.691 0-36.852-6.605-7.156-25.203-4.957-34.015 0-8.809 4.957-10.789 13.399-11.34 25.512-.547 12.113 1.898 25.84 8.508 36.852 6.605 11.011 16.148 20.394 25.512 19.843 9.359-.55 20.472-13.867 22.675-22.679 2.203-8.809-4.73-16.071-11.34-22.676-6.605-6.609-13.867-9.137-22.675-11.34-8.809-2.203-13.867-2.203-22.68 0-8.809 2.203-15.516 3.629-22.676 11.34-7.156 7.707-15.273 20.086-14.172 28.348 1.102 8.257 11.032 14.722 19.84 14.172 8.813-.551 17.805-6.547 25.516-17.008 7.707-10.461 13.621-24.739 14.172-36.852.55-12.113-3.078-20.004-11.34-25.512-8.258-5.507-24.574-9.992-31.18-2.836-6.609 7.161-8.344 27.024-2.836 39.688z" stroke="#000" fill="none" stroke-width=".797" stroke-miterlimit="10"/><path d="m1893.418 1547.898-.688 2.735-2.734-.688m23.473 17.188 1.359 2.469-2.473 1.355m27.266-9.578 2.789.394-.394 2.793m16.156-24.531 2.539-1.219 1.223 2.539m-3.243-28.625.579-2.757 2.757.574m-27.941-4-2.434-1.418 1.418-2.438m-17.609 21.332-2.262 1.68-1.679-2.258m4.628 29.367-1.425 2.43-2.43-1.426m16.664 24.454-.098 2.816-2.816-.094m26.137 5.508 2.773.5-.504 2.773m13.332-25.136 1.688-2.254 2.258 1.687m-19.864-21.593-.656-2.739 2.738-.66m-29.117-5.125-2.055-1.926 1.926-2.058m-27.289 11.113-2.785-.418.418-2.785m-15.352 25.324-2.57 1.16-1.156-2.57m12.219 22.695 1.425 2.43-2.429 1.426m26.004-11.789 2.82-.063.059 2.816m12.722-26.914 2.559-1.179 1.179 2.558m.184-29.293 1.395-2.449 2.449 1.395m-22.344-17.785-1.348-2.477 2.477-1.348m-24.145 9.61-2.515 1.269-1.27-2.515" stroke="#000" fill="none" stroke-width=".797" stroke-miterlimit="10"/></g><script type="text/ecmascript">if(window.parent.postMessage)window.parent.postMessage(&quot;58.875|123|117.75|&quot;+window.location,&quot;*&quot;);</script></svg>