<svg xmlns="http://www.w3.org/2000/svg" width="96" height="83" viewBox="1872.023 1483.152 57.385 49.614"><path d="m1914.742 1483.41-14.172 24.551m14.172-24.551h-28.344m28.344 0-42.52 24.551m42.52-24.551-28.344 49.098m28.344-49.098v49.098m0-49.098 14.176 24.551m-42.519-24.551 14.171 24.551m-14.171-24.551-14.176 24.551m14.176-24.551v49.098m0-49.098 28.343 49.098m-28.343-49.098 42.519 24.551m-56.695 0h28.347m-28.347 0 14.176 24.547m-14.176-24.547 42.52 24.547m-42.52-24.547h56.695m-42.519 24.547 14.171-24.547m-14.171 24.547h28.343m-28.343 0 42.519-24.547m-14.176 24.547-14.172-24.547m14.172 24.547 14.176-24.547" id="page1" stroke="#000" fill="none" stroke-width=".399" stroke-miterlimit="10"/><script type="text/ecmascript">if(window.parent.postMessage)window.parent.postMessage(&quot;31.125|72|62.25|&quot;+window.location,&quot;*&quot;);</script></svg>