<svg xmlns="http://www.w3.org/2000/svg" width="183" height="40" viewBox="1879.391 1502.291 109.39 23.91"><g id="page1" fill="none" stroke-miterlimit="10"><path d="m1883.434 1503.309 29.257 21.613" stroke="#000" stroke-width=".436"/><path d="M1912.602 1521.594c-.601 1.512-.3 2.657.27 3.457-.934-.308-2.118-.261-3.383.758" stroke="#000" stroke-width=".436" stroke-linecap="round" stroke-linejoin="round"/><path d="M1958.223 1504.324c7.28 6.652 18.5 6.652 25.46.293" stroke="#000" stroke-width=".436"/><path d="M1980.407 1504.069c1.367.879 2.551.805 3.442.402-.48.852-.66 2.024.093 3.461" stroke="#000" stroke-width=".436" stroke-linecap="round" stroke-linejoin="round"/><path d="M1954.02 1525.18c11.484-10.493 22.703-10.493 33.867-.293" stroke="#000" stroke-width=".436"/><path d="M1988.14 1521.568c-.754 1.438-.57 2.61-.09 3.461-.895-.402-2.075-.476-3.442.403" stroke="#000" stroke-width=".436" stroke-linecap="round" stroke-linejoin="round"/><path d="m1879.61 1525.18 29.257-21.61" stroke="#000" stroke-width=".436"/><path d="M1905.658 1502.684c1.27 1.016 2.453 1.062 3.383.758-.566.797-.871 1.941-.27 3.453" stroke="#000" stroke-width=".436" stroke-linecap="round" stroke-linejoin="round"/><path d="M1921.719 1515.559h21.61" stroke="#000" stroke-width="2.55"/><path d="M1921.719 1515.559h21.61" stroke="#fff" stroke-width="1.677"/><path d="M1941.912 1512.758c.688 1.48 2.54 2.75 3.594 2.8-1.055.055-2.906 1.325-3.594 2.801" stroke="#000" stroke-width=".436" stroke-linecap="round" stroke-linejoin="round"/></g><script type="text/ecmascript">if(window.parent.postMessage)window.parent.postMessage(&quot;15|137.25|30|&quot;+window.location,&quot;*&quot;);</script></svg>