<svg xmlns="http://www.w3.org/2000/svg" xmlns:xlink="http://www.w3.org/1999/xlink" x="0" y="0" width="661.3333740234375" height="118.66667175292969" style="
        width:661.3333740234375px;
        height:118.66667175292969px;
        background: transparent;
        fill: none;
">
        
        
        <svg xmlns="http://www.w3.org/2000/svg" class="role-diagram-draw-area"><g class="shapes-region" style="stroke: black; fill: none;"><g class="arrow-line"><path class="connection real" stroke-dasharray="" d="  M145.29,12 L196.1,12" style="stroke: rgb(0, 0, 0); stroke-width: 1; fill: none; fill-opacity: 1;"/></g><g class="arrow-line"><path class="connection real" stroke-dasharray="" d="  M196.31,12 L221.71,56" style="stroke: rgb(0, 0, 0); stroke-width: 1; fill: none; fill-opacity: 1;"/></g><g class="arrow-line"><path class="connection real" stroke-dasharray="" d="  M221.71,56.73 L196.31,100.73" style="stroke: rgb(0, 0, 0); stroke-width: 1; fill: none; fill-opacity: 1;"/></g><g class="arrow-line"><path class="connection real" stroke-dasharray="" d="  M145.29,100 L196.1,100" style="stroke: rgb(0, 0, 0); stroke-width: 1; fill: none; fill-opacity: 1;"/></g><g class="arrow-line"><path class="connection real" stroke-dasharray="" d="  M120.1,56 L145.5,100" style="stroke: rgb(0, 0, 0); stroke-width: 1; fill: none; fill-opacity: 1;"/></g><g class="arrow-line"><path class="connection real" stroke-dasharray="" d="  M145.5,12.73 L120.1,56.73" style="stroke: rgb(0, 0, 0); stroke-width: 1; fill: none; fill-opacity: 1;"/></g><g class="arrow-line"><path class="connection real" stroke-dasharray="" d="  M161.46,12 L179.93,12" style="stroke: rgb(0, 0, 0); stroke-width: 1; fill: none; fill-opacity: 1;"/><g stroke="#000" transform="matrix(-1,1.2246467991473532e-16,-1.2246467991473532e-16,-1,179.93077041774004,12)" style="stroke: rgb(0, 0, 0); stroke-width: 1;"><path d=" M17.64,-4.9 Q11.67,-1 6.71,0 Q11.67,1 17.64,4.9 M10.93,-4.9 Q4.96,-1 0,0 Q4.96,1 10.93,4.9"/></g></g><g class="arrow-line"><path class="connection real" stroke-dasharray="" d="  M161.46,100 L179.93,100" style="stroke: rgb(0, 0, 0); stroke-width: 1; fill: none; fill-opacity: 1;"/><g stroke="#000" transform="matrix(-1,1.2246467991473532e-16,-1.2246467991473532e-16,-1,179.93077041774004,100)" style="stroke: rgb(0, 0, 0); stroke-width: 1;"><path d=" M17.64,-4.9 Q11.67,-1 6.71,0 Q11.67,1 17.64,4.9 M10.93,-4.9 Q4.96,-1 0,0 Q4.96,1 10.93,4.9"/></g></g><g class="arrow-line"><path class="connection real" stroke-dasharray="" d="  M204.85,27.31 L209.67,35.56" style="stroke: rgb(0, 0, 0); stroke-width: 1; fill: none; fill-opacity: 1;"/><g stroke="#000" transform="matrix(-0.5051302646199449,-0.8630431135030187,0.8630431135030187,-0.5051302646199449,210.68226603773462,37.2818606921694)" style="stroke: rgb(0, 0, 0); stroke-width: 1;"><path d=" M10.93,-3.29 Q4.96,-0.45 0,0 Q4.96,0.45 10.93,3.29"/></g></g><g class="arrow-line"><path class="connection real" stroke-dasharray="" d="  M130.46,74.48 L134.56,81.5" style="stroke: rgb(0, 0, 0); stroke-width: 1; fill: none; fill-opacity: 1;"/><g stroke="#000" transform="matrix(-0.5039247371094591,-0.8637475669020218,0.8637475669020218,-0.5039247371094591,135.56594636226833,83.22679408590125)" style="stroke: rgb(0, 0, 0); stroke-width: 1;"><path d=" M10.93,-3.29 Q4.96,-0.45 0,0 Q4.96,0.45 10.93,3.29"/></g></g><g class="arrow-line"><path class="connection real" stroke-dasharray="" d="  M206.31,82.01 L211.95,72.44" style="stroke: rgb(0, 0, 0); stroke-width: 1; fill: none; fill-opacity: 1;"/><g stroke="none" transform="matrix(-0.5081397698590611,0.8612746218759615,-0.8612746218759615,-0.5081397698590611,213.47785351373392,69.85640848382386)" style="stroke: none; stroke-width: 1; fill: rgb(0, 0, 0);" fill="#000"><path d=" M8.93,-4.29 L0,0 L8.93,4.29 Z"/></g></g><g class="arrow-line"><path class="connection real" stroke-dasharray="" d="  M129.73,38.98 L135.38,29.41" style="stroke: rgb(0, 0, 0); stroke-width: 1; fill: none; fill-opacity: 1;"/><g stroke="none" fill="#000" transform="matrix(-0.5081397698590611,0.8612746218759615,-0.8612746218759615,-0.5081397698590611,136.9029645241809,26.828613718265487)" style="stroke: none; fill: rgb(0, 0, 0); stroke-width: 1;"><path d=" M8.93,-4.29 L0,0 L8.93,4.29 Z"/></g></g><g class="arrow-line"><path class="connection real" stroke-dasharray="" d="  M275,45 L344.67,45" style="stroke: rgb(0, 0, 0); stroke-width: 1; fill: none; fill-opacity: 1;"/></g><g class="arrow-line"><path class="connection real" stroke-dasharray="" d="  M297.17,45 L322.5,45" style="stroke: rgb(0, 0, 0); stroke-width: 1; fill: none; fill-opacity: 1;"/><g stroke="#000" transform="matrix(-1,1.2246467991473532e-16,-1.2246467991473532e-16,-1,322.5,45)" style="stroke: rgb(0, 0, 0); stroke-width: 1;"><path d=" M17.64,-4.9 Q11.67,-1 6.71,0 Q11.67,1 17.64,4.9 M10.93,-4.9 Q4.96,-1 0,0 Q4.96,1 10.93,4.9"/></g></g><g class="arrow-line"><path class="connection real" stroke-dasharray="" d="  M251,81 L368.67,81" style="stroke: rgb(0, 0, 0); stroke-width: 1; fill: none; fill-opacity: 1;"/></g><g class="composite-shape"><path class="real" d=" M246.61,63 C252.35,53.06 265.06,45 275,45 C284.94,45 288.35,53.06 282.61,63 C276.87,72.94 264.16,81 254.22,81 C244.27,81 240.87,72.94 246.61,63 Z" style="stroke-width: 1; stroke: rgb(0, 0, 0); fill: none; fill-opacity: 1;"/></g><g class="composite-shape"><path class="real" d=" M340.27,63 C334.53,53.06 337.94,45 347.88,45 C357.82,45 370.53,53.06 376.27,63 C382.01,72.94 378.61,81 368.67,81 C358.73,81 346.01,72.94 340.27,63 Z" style="stroke-width: 1; stroke: rgb(0, 0, 0); fill: none; fill-opacity: 1;"/></g><g class="arrow-line"><path class="connection real" stroke-dasharray="" d="  M246.61,63 L251.82,56.36" style="stroke: rgb(0, 0, 0); stroke-width: 1; fill: none; fill-opacity: 1;"/><g stroke="none" fill="#000" transform="matrix(-0.6171732118133824,0.786827316899937,-0.786827316899937,-0.6171732118133824,253.66665649414062,54)" style="stroke: none; fill: rgb(0, 0, 0); stroke-width: 1;"><path d=" M8.93,-4.29 L0,0 L8.93,4.29 Z"/></g></g><g class="arrow-line"><path class="connection real" stroke-dasharray="" d="  M340.27,63 L343.84,67.62" style="stroke: rgb(0, 0, 0); stroke-width: 1; fill: none; fill-opacity: 1;"/><g stroke="none" fill="#000" transform="matrix(-0.6102834352365835,-0.792183140868218,0.792183140868218,-0.6102834352365835,345.6666564941406,70)" style="stroke: none; fill: rgb(0, 0, 0); stroke-width: 1;"><path d=" M8.93,-4.29 L0,0 L8.93,4.29 Z"/></g></g><g class="arrow-line"><path class="connection real" stroke-dasharray="" d="  M372.67,58 L375.1,61.38" style="stroke: rgb(0, 0, 0); stroke-width: 1; fill: none; fill-opacity: 1;"/><g stroke="#000" transform="matrix(-0.5850992234179339,-0.810961712262503,0.810961712262503,-0.5850992234179339,376.27435164872736,63)" style="stroke: rgb(0, 0, 0); stroke-width: 1;"><path d=" M10.93,-3.29 Q4.96,-0.45 0,0 Q4.96,0.45 10.93,3.29"/></g></g><g class="arrow-line"><path class="connection real" stroke-dasharray="" d="  M279.67,67 L281.42,64.61" style="stroke: rgb(0, 0, 0); stroke-width: 1; fill: none; fill-opacity: 1;"/><g stroke="#000" transform="matrix(-0.5924350806898583,0.8056181944122173,-0.8056181944122173,-0.5924350806898583,282.60769515458674,63)" style="stroke: rgb(0, 0, 0); stroke-width: 1;"><path d=" M10.93,-3.29 Q4.96,-0.45 0,0 Q4.96,0.45 10.93,3.29"/></g></g><g class="arrow-line"><path class="connection real" stroke-dasharray="" d="  M437,45 L506.67,45" style="stroke: rgb(0, 0, 0); stroke-width: 1; fill: none; fill-opacity: 1;"/></g><g class="arrow-line"><path class="connection real" stroke-dasharray="" d="  M480.33,61 L486.33,65" style="stroke: rgb(0, 0, 0); stroke-width: 1; fill: none; fill-opacity: 1;"/><g stroke="#000" transform="matrix(-0.8320509480795583,-0.5546992156114052,0.5546992156114052,-0.8320509480795583,486.3333339691162,65)" style="stroke: rgb(0, 0, 0); stroke-width: 1;"><path d=" M17.64,-4.9 Q11.67,-1 6.71,0 Q11.67,1 17.64,4.9 M10.93,-4.9 Q4.96,-1 0,0 Q4.96,1 10.93,4.9"/></g></g><g class="arrow-line"><path class="connection real" stroke-dasharray="" d="  M413,81 L530.67,81" style="stroke: rgb(0, 0, 0); stroke-width: 1; fill: none; fill-opacity: 1;"/></g><g class="composite-shape"><path class="real" d=" M408.61,63 C414.35,53.06 427.06,45 437,45 C446.94,45 450.35,53.06 444.61,63 C438.87,72.94 426.16,81 416.22,81 C406.27,81 402.87,72.94 408.61,63 Z" style="stroke-width: 1; stroke: rgb(0, 0, 0); fill: none; fill-opacity: 1;"/></g><g class="composite-shape"><path class="real" d=" M502.27,63 C496.53,53.06 499.94,45 509.88,45 C519.82,45 532.53,53.06 538.27,63 C544.01,72.94 540.61,81 530.67,81 C520.73,81 508.01,72.94 502.27,63 Z" style="stroke-width: 1; stroke: rgb(0, 0, 0); fill: none; fill-opacity: 1;"/></g><g class="arrow-line"><path class="connection real" stroke-dasharray="" d="  M408.61,63 L413.82,56.36" style="stroke: rgb(0, 0, 0); stroke-width: 1; fill: none; fill-opacity: 1;"/><g stroke="none" fill="#000" transform="matrix(-0.6171732118133824,0.786827316899937,-0.786827316899937,-0.6171732118133824,415.6666564941407,54)" style="stroke: none; fill: rgb(0, 0, 0); stroke-width: 1;"><path d=" M8.93,-4.29 L0,0 L8.93,4.29 Z"/></g></g><g class="arrow-line"><path class="connection real" stroke-dasharray="" d="  M507.67,70 L504.11,65.38" style="stroke: rgb(0, 0, 0); stroke-width: 1; fill: none; fill-opacity: 1;"/><g stroke="none" fill="#000" transform="matrix(0.6102834352365836,0.7921831408682178,-0.7921831408682178,0.6102834352365836,502.27435164872736,63)" style="stroke: none; fill: rgb(0, 0, 0); stroke-width: 1;"><path d=" M8.93,-4.29 L0,0 L8.93,4.29 Z"/></g></g><g class="arrow-line"><path class="connection real" stroke-dasharray="" d="  M534.67,58 L531.08,54.41" style="stroke: rgb(0, 0, 0); stroke-width: 1; fill: none; fill-opacity: 1;"/><g stroke="#000" transform="matrix(0.7071067811865483,0.7071067811865467,-0.7071067811865467,0.7071067811865483,529.6666641235352,53)" style="stroke: rgb(0, 0, 0); stroke-width: 1;"><path d=" M10.93,-3.29 Q4.96,-0.45 0,0 Q4.96,0.45 10.93,3.29"/></g></g><g class="arrow-line"><path class="connection real" stroke-dasharray="" d="  M441.67,67 L443.42,64.61" style="stroke: rgb(0, 0, 0); stroke-width: 1; fill: none; fill-opacity: 1;"/><g stroke="#000" transform="matrix(-0.5924350806898583,0.8056181944122173,-0.8056181944122173,-0.5924350806898583,444.6076951545868,63)" style="stroke: rgb(0, 0, 0); stroke-width: 1;"><path d=" M10.93,-3.29 Q4.96,-0.45 0,0 Q4.96,0.45 10.93,3.29"/></g></g><g class="arrow-line"><path class="connection real" stroke-dasharray="" d="  M437,45 C491.33,45 474.33,81 530.67,81" style="stroke: rgb(0, 0, 0); stroke-width: 1; fill: none; fill-opacity: 1;"/></g><g class="composite-shape"><path class="real" d=" M140.87,12 C140.87,9.56 142.85,7.58 145.29,7.58 C147.73,7.58 149.71,9.56 149.71,12 C149.71,14.44 147.73,16.42 145.29,16.42 C142.85,16.42 140.87,14.44 140.87,12 Z" style="stroke-width: 1; stroke: rgb(0, 0, 0); fill: rgb(208, 2, 27); fill-opacity: 1;"/></g><g class="composite-shape"><path class="real" d=" M217.29,56.73 C217.29,54.29 219.27,52.31 221.71,52.31 C224.15,52.31 226.13,54.29 226.13,56.73 C226.13,59.17 224.15,61.15 221.71,61.15 C219.27,61.15 217.29,59.17 217.29,56.73 Z" style="stroke-width: 1; stroke: rgb(0, 0, 0); fill: rgb(208, 2, 27); fill-opacity: 1;"/></g><g class="composite-shape"><path class="real" d=" M141.08,100 C141.08,97.56 143.06,95.58 145.5,95.58 C147.94,95.58 149.92,97.56 149.92,100 C149.92,102.44 147.94,104.42 145.5,104.42 C143.06,104.42 141.08,102.44 141.08,100 Z" style="stroke-width: 1; stroke: rgb(0, 0, 0); fill: rgb(208, 2, 27); fill-opacity: 1;"/></g><g class="composite-shape"><path class="real" d=" M270.58,45 C270.58,42.56 272.56,40.58 275,40.58 C277.44,40.58 279.42,42.56 279.42,45 C279.42,47.44 277.44,49.42 275,49.42 C272.56,49.42 270.58,47.44 270.58,45 Z" style="stroke-width: 1; stroke: rgb(0, 0, 0); fill: rgb(208, 2, 27); fill-opacity: 1;"/></g><g class="composite-shape"><path class="real" d=" M364.25,81 C364.25,78.56 366.23,76.58 368.67,76.58 C371.11,76.58 373.08,78.56 373.08,81 C373.08,83.44 371.11,85.42 368.67,85.42 C366.23,85.42 364.25,83.44 364.25,81 Z" style="stroke-width: 1; stroke: rgb(0, 0, 0); fill: rgb(208, 2, 27); fill-opacity: 1;"/></g><g class="composite-shape"><path class="real" d=" M432.58,45 C432.58,42.56 434.56,40.58 437,40.58 C439.44,40.58 441.42,42.56 441.42,45 C441.42,47.44 439.44,49.42 437,49.42 C434.56,49.42 432.58,47.44 432.58,45 Z" style="stroke-width: 1; stroke: rgb(0, 0, 0); fill: rgb(208, 2, 27); fill-opacity: 1;"/></g><g class="composite-shape"><path class="real" d=" M501.05,45 C501.05,42.56 503.03,40.58 505.47,40.58 C507.9,40.58 509.88,42.56 509.88,45 C509.88,47.44 507.9,49.42 505.47,49.42 C503.03,49.42 501.05,47.44 501.05,45 Z" style="stroke-width: 1; stroke: rgb(0, 0, 0); fill: rgb(208, 2, 27); fill-opacity: 1;"/></g><g class="composite-shape"><path class="real" d=" M191.89,12 C191.89,9.56 193.87,7.58 196.31,7.58 C198.75,7.58 200.72,9.56 200.72,12 C200.72,14.44 198.75,16.42 196.31,16.42 C193.87,16.42 191.89,14.44 191.89,12 Z" style="stroke-width: 1; stroke: rgb(0, 0, 0); fill: rgb(74, 144, 226); fill-opacity: 1;"/></g><g class="composite-shape"><path class="real" d=" M115.68,56 C115.68,53.56 117.66,51.58 120.1,51.58 C122.54,51.58 124.51,53.56 124.51,56 C124.51,58.44 122.54,60.42 120.1,60.42 C117.66,60.42 115.68,58.44 115.68,56 Z" style="stroke-width: 1; stroke: rgb(0, 0, 0); fill: rgb(74, 144, 226); fill-opacity: 1;"/></g><g class="composite-shape"><path class="real" d=" M191.68,100 C191.68,97.56 193.66,95.58 196.1,95.58 C198.54,95.58 200.51,97.56 200.51,100 C200.51,102.44 198.54,104.42 196.1,104.42 C193.66,104.42 191.68,102.44 191.68,100 Z" style="stroke-width: 1; stroke: rgb(0, 0, 0); fill: rgb(74, 144, 226); fill-opacity: 1;"/></g><g class="composite-shape"><path class="real" d=" M246.58,81 C246.58,78.56 248.56,76.58 251,76.58 C253.44,76.58 255.42,78.56 255.42,81 C255.42,83.44 253.44,85.42 251,85.42 C248.56,85.42 246.58,83.44 246.58,81 Z" style="stroke-width: 1; stroke: rgb(0, 0, 0); fill: rgb(74, 144, 226); fill-opacity: 1;"/></g><g class="composite-shape"><path class="real" d=" M340.25,45 C340.25,42.56 342.23,40.58 344.67,40.58 C347.11,40.58 349.08,42.56 349.08,45 C349.08,47.44 347.11,49.42 344.67,49.42 C342.23,49.42 340.25,47.44 340.25,45 Z" style="stroke-width: 1; stroke: rgb(0, 0, 0); fill: rgb(74, 144, 226); fill-opacity: 1;"/></g><g class="composite-shape"><path class="real" d=" M411.8,81 C411.8,78.56 413.78,76.58 416.22,76.58 C418.65,76.58 420.63,78.56 420.63,81 C420.63,83.44 418.65,85.42 416.22,85.42 C413.78,85.42 411.8,83.44 411.8,81 Z" style="stroke-width: 1; stroke: rgb(0, 0, 0); fill: rgb(74, 144, 226); fill-opacity: 1;"/></g><g class="composite-shape"><path class="real" d=" M526.25,81 C526.25,78.56 528.23,76.58 530.67,76.58 C533.11,76.58 535.08,78.56 535.08,81 C535.08,83.44 533.11,85.42 530.67,85.42 C528.23,85.42 526.25,83.44 526.25,81 Z" style="stroke-width: 1; stroke: rgb(0, 0, 0); fill: rgb(74, 144, 226); fill-opacity: 1;"/></g><g/></g><g/><g/><g/></svg>
        <svg xmlns="http://www.w3.org/2000/svg" xmlns:xlink="http://www.w3.org/1999/xlink" width="660" height="117.33333587646484" style="width:660px;height:117.33333587646484px;font-family:Asana-Math, Asana;background:transparent;"></svg>
</svg>
